# Blender v2.74 (sub 0) OBJ File: 'generator.blend'
# www.blender.org
mtllib generator.mtl
o generator_Cylinder.001
v 0.158445 1.111729 0.796555
v 0.158445 1.236974 0.796555
v -0.158445 1.133919 0.796555
v -0.158445 1.236974 0.796555
v -0.451212 1.111729 0.675287
v -0.451212 1.236974 0.675287
v 0.116152 1.377398 0.583938
v -0.116152 1.377398 0.583938
v -0.330774 1.377398 0.495039
v 0.000000 1.196207 -0.000000
v -0.000000 1.111729 0.000000
v -0.109834 1.475170 0.978703
v 0.109834 1.475170 0.978703
v -0.080517 1.572511 0.831317
v 0.080517 1.572511 0.831317
v 0.067353 1.260368 0.338604
v -0.191804 1.260368 0.287055
v -0.067353 1.260368 0.338604
v 0.098975 1.283285 0.497579
v -0.281856 1.283285 0.421827
v -0.098974 1.283285 0.497579
v 0.106840 1.379762 0.537120
v -0.304254 1.379762 0.455348
v -0.106840 1.379762 0.537120
v 0.675287 1.111729 0.451212
v 0.675287 1.236974 0.451212
v 0.451212 1.133919 0.675287
v 0.451212 1.236974 0.675287
v 0.495039 1.377398 0.330774
v 0.330774 1.377398 0.495039
v 0.614384 1.475169 0.769712
v 0.769712 1.475169 0.614383
v 0.530896 1.572511 0.644764
v 0.644764 1.572511 0.530896
v 0.287055 1.260368 0.191804
v 0.191804 1.260368 0.287055
v 0.421827 1.283285 0.281856
v 0.281856 1.283285 0.421827
v 0.455348 1.379762 0.304254
v 0.304254 1.379762 0.455348
v 0.796555 1.111729 -0.158445
v 0.796555 1.236974 -0.158445
v 0.796555 1.133919 0.158445
v 0.796555 1.236974 0.158445
v 0.583938 1.377398 -0.116152
v 0.583938 1.377398 0.116152
v 0.978703 1.475169 0.109834
v 0.978703 1.475169 -0.109834
v 0.831317 1.572511 0.080517
v 0.831317 1.572511 -0.080517
v 0.338604 1.260368 -0.067353
v 0.338604 1.260368 0.067353
v 0.497579 1.283285 -0.098975
v 0.497579 1.283285 0.098974
v 0.537120 1.379762 -0.106840
v 0.537120 1.379762 0.106840
v 0.451212 1.111729 -0.675287
v 0.451212 1.236974 -0.675287
v 0.675287 1.133919 -0.451212
v 0.675287 1.236974 -0.451212
v 0.330774 1.377398 -0.495039
v 0.495039 1.377398 -0.330774
v 0.769712 1.475169 -0.614384
v 0.614383 1.475169 -0.769712
v 0.644764 1.572511 -0.530896
v 0.530896 1.572511 -0.644764
v 0.191804 1.260368 -0.287055
v 0.287055 1.260368 -0.191804
v 0.281856 1.283285 -0.421827
v 0.421827 1.283285 -0.281856
v 0.304254 1.379762 -0.455348
v 0.455348 1.379762 -0.304254
v -0.158445 1.111729 -0.796555
v -0.158445 1.236974 -0.796555
v 0.158445 1.133919 -0.796555
v 0.158445 1.236974 -0.796555
v -0.116152 1.377398 -0.583938
v 0.116153 1.377398 -0.583938
v 0.109834 1.475169 -0.978703
v -0.109834 1.475170 -0.978703
v 0.080517 1.572511 -0.831317
v -0.080517 1.572511 -0.831317
v -0.067353 1.260368 -0.338604
v 0.067353 1.260368 -0.338604
v -0.098974 1.283285 -0.497579
v 0.098975 1.283285 -0.497579
v -0.106840 1.379762 -0.537120
v 0.106840 1.379762 -0.537120
v -0.675287 1.111729 -0.451212
v -0.675287 1.236974 -0.451212
v -0.451212 1.133919 -0.675287
v -0.451212 1.236974 -0.675287
v -0.495039 1.377398 -0.330774
v -0.330774 1.377398 -0.495039
v -0.614383 1.475170 -0.769712
v -0.769711 1.475170 -0.614383
v -0.530896 1.572511 -0.644764
v -0.644764 1.572511 -0.530896
v -0.287055 1.260368 -0.191804
v -0.191804 1.260368 -0.287055
v -0.421827 1.283285 -0.281856
v -0.281856 1.283285 -0.421827
v -0.455348 1.379762 -0.304254
v -0.304254 1.379762 -0.455348
v -0.796555 1.111729 0.158445
v -0.796555 1.236974 0.158445
v -0.796555 1.133919 -0.158445
v -0.796555 1.236974 -0.158445
v -0.583938 1.377398 0.116152
v -0.583938 1.377398 -0.116152
v -0.978703 1.475170 -0.109834
v -0.978703 1.475170 0.109834
v -0.831317 1.572511 -0.080517
v -0.831317 1.572511 0.080517
v -0.338604 1.260368 0.067353
v -0.338604 1.260368 -0.067353
v -0.497578 1.283285 0.098974
v -0.497579 1.283285 -0.098975
v -0.537120 1.379762 0.106840
v -0.537120 1.379762 -0.106840
v -0.451212 1.111729 0.675287
v -0.451212 1.236974 0.675287
v -0.675287 1.133919 0.451212
v -0.675287 1.236974 0.451212
v -0.330774 1.377398 0.495039
v -0.495039 1.377398 0.330774
v -0.769711 1.475170 0.614383
v -0.614383 1.475170 0.769711
v -0.644764 1.572511 0.530896
v -0.530896 1.572511 0.644764
v -0.191804 1.260368 0.287055
v -0.287055 1.260368 0.191804
v -0.281856 1.283285 0.421827
v -0.421827 1.283285 0.281856
v -0.304254 1.379762 0.455348
v -0.455348 1.379762 0.304254
vt 0.306705 0.979020
vt 0.270579 0.980665
vt 0.274702 0.890708
vt 0.304427 0.889355
vt 0.270579 0.793731
vt 0.306705 0.792087
vt 0.339651 0.057217
vt 0.426227 0.094272
vt 0.388620 0.148658
vt 0.325153 0.121494
vt 0.771068 0.962425
vt 0.708249 0.962425
vt 0.726237 0.877638
vt 0.769783 0.877638
vt 0.811084 0.000000
vt 0.764175 0.244004
vt 0.717267 0.000000
vt 0.732523 0.552498
vt 0.676800 0.640429
vt 0.695728 0.536707
vt 0.630591 0.037147
vt 0.186333 0.878516
vt 0.249151 0.878516
vt 0.247866 0.963304
vt 0.204321 0.963304
vt 0.437196 0.198919
vt 0.445032 0.101560
vt 0.478705 0.136401
vt 0.306705 0.980424
vt 0.306705 0.883353
vt 0.360631 0.898243
vt 0.360631 0.965533
vt 0.517034 0.111386
vt 0.471101 0.063860
vt 0.322365 0.135821
vt 0.380744 0.160807
vt 0.655902 0.536707
vt 0.758796 0.511214
vt 0.704726 0.488009
vt 0.191425 0.832232
vt 0.221436 0.825371
vt 0.230151 0.868248
vt 0.200833 0.878516
vt 0.646201 0.488009
vt 0.425425 0.207038
vt 0.801542 0.920500
vt 0.771068 0.920828
vt 0.771068 0.860126
vt 0.801542 0.864266
vt 0.186333 0.788031
vt 0.150114 0.786464
vt 0.154036 0.689477
vt 0.183837 0.690767
vt 0.150114 0.599547
vt 0.186333 0.601115
vt 0.492489 0.162833
vt 0.528350 0.252462
vt 0.463484 0.264624
vt 0.600413 0.882773
vt 0.528350 0.882773
vt 0.532506 0.792850
vt 0.582460 0.792850
vt 0.564252 0.105787
vt 0.775926 0.619798
vt 0.760685 0.581675
vt 0.528350 0.195469
vt 0.346903 0.788867
vt 0.270579 0.792087
vt 0.293995 0.698049
vt 0.346903 0.695817
vt 0.984518 0.645272
vt 0.915743 0.645272
vt 0.926293 0.570903
vt 0.973968 0.570903
vt 0.093166 0.769095
vt 0.095885 0.701864
vt 0.816033 0.860126
vt 0.771068 0.850599
vt 0.771068 0.801281
vt 0.816033 0.792850
vt 0.449606 0.267475
vt 0.822576 0.610111
vt 0.800180 0.554090
vt 0.186333 0.706304
vt 0.216719 0.708713
vt 0.216719 0.769350
vt 0.186333 0.771759
vt 0.463484 0.335770
vt 0.449606 0.332918
vt 0.093166 0.670298
vt 0.056948 0.668730
vt 0.045780 0.599547
vt 0.075582 0.600837
vt 0.168748 0.877031
vt 0.138947 0.875741
vt 0.528350 0.349513
vt 0.492489 0.439213
vt 0.437196 0.401527
vt 0.380117 0.883353
vt 0.307958 0.792087
vt 0.358847 0.792087
vt 0.528350 0.292540
vt 0.760685 0.699184
vt 0.775926 0.661061
vt 0.564252 0.382222
vt 0.155985 0.961818
vt 0.093166 0.961818
vt 0.094451 0.877031
vt 0.137997 0.877031
vt 0.388620 0.451883
vt 0.478705 0.461590
vt 0.445032 0.496496
vt 0.414557 0.883353
vt 0.414557 0.980424
vt 0.471101 0.535330
vt 0.517034 0.487713
vt 0.425425 0.393402
vt 0.800180 0.726769
vt 0.822576 0.670748
vt 0.200833 0.599547
vt 0.230151 0.609816
vt 0.221436 0.652692
vt 0.191425 0.645831
vt 0.380744 0.439721
vt 0.093166 0.857214
vt 0.056948 0.855647
vt 0.060869 0.758660
vt 0.090671 0.759950
vt 0.426227 0.507904
vt 0.339651 0.545130
vt 0.325153 0.479173
vt 0.423228 0.699037
vt 0.423228 0.792087
vt 0.370320 0.789855
vt 0.630591 0.450861
vt 0.695728 0.744152
vt 0.732523 0.728361
vt 0.717267 0.488009
vt 0.346904 0.692597
vt 0.270579 0.695817
vt 0.293995 0.601779
vt 0.346904 0.599547
vt 0.256457 0.479240
vt 0.311848 0.553762
vt 0.264228 0.553809
vt 0.000000 0.838278
vt 0.002718 0.771047
vt 0.256939 0.599547
vt 0.321898 0.599483
vt 0.322365 0.464822
vt 0.704726 0.792850
vt 0.758796 0.769645
vt 0.230151 0.725110
vt 0.260669 0.724088
vt 0.263244 0.780280
vt 0.232932 0.785768
vt 0.259177 0.464884
vt 0.270579 0.823532
vt 0.240849 0.832457
vt 0.915743 0.558760
vt 0.879524 0.557192
vt 0.868356 0.488009
vt 0.898158 0.489299
vt 0.075582 0.946214
vt 0.045780 0.944924
vt 0.245941 0.545222
vt 0.159365 0.508167
vt 0.192989 0.452076
vt 0.591169 0.967560
vt 0.528350 0.967560
vt 0.546338 0.882773
vt 0.589884 0.882773
vt 0.811084 0.488009
vt 0.619107 0.728361
vt 0.655902 0.744152
vt 0.897759 0.450861
vt 0.915743 0.488009
vt 0.978530 0.492559
vt 0.978530 0.570903
vt 0.935006 0.567749
vt 0.144414 0.401816
vt 0.131043 0.496806
vt 0.097371 0.461965
vt 0.822576 1.000000
vt 0.822576 0.902929
vt 0.876502 0.917820
vt 0.876502 0.985109
vt 0.061802 0.488161
vt 0.107735 0.535688
vt 0.200798 0.439898
vt 0.592130 0.769645
vt 0.646201 0.792850
vt 0.240849 0.599547
vt 0.270579 0.607768
vt 0.263244 0.663510
vt 0.232932 0.659718
vt 0.156117 0.393667
vt 0.915743 0.745676
vt 0.879524 0.744108
vt 0.883446 0.647122
vt 0.913247 0.648412
vt 0.093103 0.439606
vt 0.057242 0.349977
vt 0.118125 0.336110
vt 0.423228 0.599547
vt 0.499553 0.602767
vt 0.499553 0.695817
vt 0.446645 0.693585
vt 0.964098 0.382222
vt 0.575704 0.661061
vt 0.590945 0.699184
vt 1.000000 0.292540
vt 0.380117 0.792087
vt 0.453528 0.792087
vt 0.432258 0.883353
vt 0.381370 0.883353
vt 0.118125 0.264964
vt 0.042204 0.324084
vt 0.042204 0.274766
vt 0.822576 0.726739
vt 0.825295 0.659509
vt 0.000000 0.266420
vt 0.000000 0.333697
vt 0.131936 0.333230
vt 0.528350 0.670748
vt 0.550747 0.726769
vt 0.453528 0.852560
vt 0.483914 0.854969
vt 0.483914 0.915606
vt 0.453528 0.918015
vt 0.131936 0.267788
vt 0.488631 0.971627
vt 0.458620 0.978488
vt 0.887861 0.902929
vt 0.851643 0.901361
vt 0.868356 0.833385
vt 0.898158 0.834675
vt 0.057242 0.252925
vt 0.093103 0.163226
vt 0.144414 0.199207
vt 0.708249 0.792850
vt 0.771068 0.792850
vt 0.753080 0.877638
vt 0.709535 0.877638
vt 1.000000 0.195469
vt 0.590945 0.581675
vt 0.575704 0.619798
vt 0.964098 0.105787
vt 0.600413 0.792850
vt 0.672476 0.792850
vt 0.654523 0.882773
vt 0.604569 0.882773
vt 0.192989 0.148851
vt 0.097371 0.136776
vt 0.131043 0.101869
vt 0.591169 0.979844
vt 0.591169 0.882773
vt 0.645095 0.897663
vt 0.645095 0.964953
vt 0.107735 0.064217
vt 0.061802 0.111834
vt 0.156117 0.207303
vt 0.550747 0.554090
vt 0.528350 0.610111
vt 0.488631 0.917997
vt 0.519104 0.913857
vt 0.524191 0.957354
vt 0.494121 0.964951
vt 0.200798 0.160984
vt 0.458620 0.792087
vt 0.488631 0.798948
vt 0.708249 0.958360
vt 0.672476 0.952891
vt 0.677292 0.862971
vt 0.706727 0.867472
vt 0.708249 0.798319
vt 0.159365 0.094535
vt 0.245941 0.057309
vt 0.256456 0.121562
vt 0.423228 0.602767
vt 0.423228 0.695817
vt 0.370320 0.693585
vt 0.897759 0.037147
vt 0.619107 0.552497
vt 0.499553 0.788867
vt 0.446645 0.698049
vt 0.264228 0.044604
vt 0.311848 0.044557
vt 0.930428 0.902929
vt 0.930428 1.000000
vt 0.321898 0.000000
vt 0.256939 0.000064
vt 0.259177 0.135883
vt 0.592130 0.511213
vt 0.494121 0.792087
vt 0.524191 0.797216
vt 0.519104 0.857624
vt 0.488631 0.857295
vn 0.000000 0.000000 1.000000
vn -0.382700 0.000000 0.923900
vn -0.210900 0.834400 0.509200
vn -0.972300 0.230100 -0.041400
vn 0.059200 -0.997500 0.039600
vn -0.000000 0.982500 -0.186200
vn -0.069800 -0.997500 0.013900
vn 0.972300 0.230100 -0.041400
vn 0.000000 0.785200 -0.619300
vn 0.000000 -0.607400 0.794400
vn 0.000000 0.834400 0.551100
vn -0.019300 0.998700 0.046600
vn 0.071200 0.982500 -0.172000
vn -0.000000 0.989800 -0.142700
vn -0.000000 0.379200 -0.925300
vn 0.054600 0.989800 -0.131800
vn 0.000000 0.998700 0.050400
vn 0.354100 0.379200 -0.854900
vn 0.707100 0.000000 0.707100
vn 0.382700 0.000000 0.923900
vn 0.210900 0.834400 0.509200
vn -0.716800 0.230100 0.658200
vn 0.069800 -0.997500 -0.013900
vn -0.131600 0.982500 -0.131600
vn -0.039600 -0.997500 0.059200
vn 0.658200 0.230100 -0.716800
vn -0.437900 0.785200 -0.437900
vn 0.561700 -0.607400 0.561700
vn 0.389700 0.834400 0.389700
vn 0.019300 0.998700 0.046600
vn -0.071200 0.982500 -0.172000
vn -0.100900 0.989800 -0.100900
vn -0.654300 0.379200 -0.654300
vn -0.054600 0.989800 -0.131800
vn 0.035700 0.998700 0.035700
vn -0.354100 0.379200 -0.854900
vn 1.000000 0.000000 -0.000000
vn 0.923900 -0.000000 0.382700
vn 0.509200 0.834400 0.210900
vn -0.041400 0.230100 0.972300
vn 0.039600 -0.997500 -0.059200
vn -0.186200 0.982500 0.000000
vn 0.013900 -0.997500 0.069800
vn -0.041400 0.230100 -0.972300
vn -0.619300 0.785200 0.000000
vn 0.794400 -0.607400 -0.000000
vn 0.551100 0.834400 0.000000
vn 0.046600 0.998700 0.019300
vn -0.172000 0.982500 -0.071200
vn -0.142700 0.989800 0.000000
vn -0.925300 0.379200 0.000000
vn -0.131800 0.989800 -0.054600
vn 0.050400 0.998700 0.000000
vn -0.854900 0.379200 -0.354100
vn 0.707100 0.000000 -0.707100
vn 0.923900 0.000000 -0.382700
vn 0.509200 0.834400 -0.210900
vn 0.658200 0.230100 0.716800
vn -0.013900 -0.997500 -0.069800
vn -0.131600 0.982500 0.131600
vn -0.716800 0.230100 -0.658200
vn -0.437900 0.785200 0.437900
vn 0.561700 -0.607400 -0.561700
vn 0.389700 0.834400 -0.389700
vn 0.046600 0.998700 -0.019300
vn -0.172000 0.982500 0.071200
vn -0.100900 0.989800 0.100900
vn -0.654300 0.379200 0.654300
vn -0.131800 0.989800 0.054600
vn 0.035700 0.998700 -0.035700
vn -0.854900 0.379200 0.354100
vn 0.000000 0.000000 -1.000000
vn 0.382700 -0.000000 -0.923900
vn 0.210900 0.834400 -0.509200
vn 0.972300 0.230100 0.041400
vn -0.059200 -0.997500 -0.039600
vn 0.000000 0.982500 0.186200
vn -0.972300 0.230100 0.041400
vn 0.000000 0.785200 0.619300
vn -0.000000 -0.607400 -0.794400
vn 0.000000 0.834400 -0.551100
vn 0.019300 0.998700 -0.046600
vn -0.071200 0.982500 0.172000
vn 0.000000 0.989800 0.142700
vn 0.000000 0.379200 0.925300
vn -0.054600 0.989800 0.131800
vn 0.000000 0.998700 -0.050400
vn -0.354100 0.379200 0.854900
vn -0.707100 0.000000 -0.707100
vn -0.382700 0.000000 -0.923900
vn -0.210900 0.834400 -0.509200
vn 0.716800 0.230100 -0.658200
vn 0.131600 0.982500 0.131600
vn -0.658200 0.230100 0.716800
vn 0.437900 0.785200 0.437900
vn -0.561700 -0.607400 -0.561700
vn -0.389700 0.834400 -0.389700
vn -0.019300 0.998700 -0.046600
vn 0.071200 0.982500 0.172000
vn 0.100900 0.989800 0.100900
vn 0.654300 0.379200 0.654300
vn 0.054600 0.989800 0.131800
vn -0.035700 0.998700 -0.035700
vn 0.354100 0.379200 0.854900
vn -1.000000 -0.000000 0.000000
vn -0.923900 0.000000 -0.382700
vn -0.509200 0.834400 -0.210900
vn 0.041400 0.230100 -0.972300
vn 0.186200 0.982500 -0.000000
vn 0.041400 0.230100 0.972300
vn 0.619300 0.785200 0.000000
vn -0.794400 -0.607400 0.000000
vn -0.551100 0.834400 0.000000
vn -0.046600 0.998700 -0.019300
vn 0.172000 0.982500 0.071200
vn 0.142700 0.989800 -0.000000
vn 0.925300 0.379200 -0.000000
vn 0.131800 0.989800 0.054600
vn -0.050400 0.998700 0.000000
vn 0.854900 0.379200 0.354100
vn -0.707100 0.000000 0.707100
vn -0.923900 0.000000 0.382700
vn -0.509200 0.834400 0.210900
vn -0.658200 0.230100 -0.716800
vn 0.131600 0.982500 -0.131600
vn 0.716800 0.230100 0.658200
vn 0.437900 0.785200 -0.437900
vn -0.561700 -0.607400 0.561700
vn -0.389700 0.834400 0.389700
vn -0.046600 0.998700 0.019300
vn 0.172000 0.982500 -0.071200
vn 0.100900 0.989800 -0.100900
vn 0.654300 0.379200 -0.654300
vn 0.131800 0.989800 -0.054600
vn -0.035700 0.998700 0.035700
vn 0.854900 0.379200 -0.354100
usemtl Material.001
s off
f 1/1/1 2/2/1 4/3/1 3/4/1
f 3/4/2 4/3/2 6/5/2 5/6/2
f 6/7/3 4/8/3 8/9/3 9/10/3
f 8/11/4 4/12/4 12/13/4 14/14/4
f 5/15/5 11/16/5 3/17/5
f 16/18/6 10/19/6 18/20/6
f 3/17/7 11/16/7 1/21/7
f 2/22/8 7/23/8 15/24/8 13/25/8
f 7/26/9 8/9/9 14/27/9 15/28/9
f 4/29/10 2/30/10 13/31/10 12/32/10
f 13/33/11 15/28/11 14/27/11 12/34/11
f 23/35/12 9/10/12 8/9/12 24/36/12
f 10/19/13 17/37/13 18/20/13
f 19/38/14 16/18/14 18/20/14 21/39/14
f 22/40/15 19/41/15 21/42/15 24/43/15
f 17/37/16 20/44/16 21/39/16 18/20/16
f 7/26/17 22/45/17 24/36/17 8/9/17
f 20/46/18 23/47/18 24/48/18 21/49/18
f 25/50/19 26/51/19 28/52/19 27/53/19
f 27/53/20 28/52/20 2/54/20 1/55/20
f 2/56/21 28/57/21 30/58/21 7/26/21
f 30/59/22 28/60/22 31/61/22 33/62/22
f 1/21/23 11/16/23 27/63/23
f 35/64/24 10/19/24 36/65/24
f 27/63/25 11/16/25 25/66/25
f 26/67/26 29/68/26 34/69/26 32/70/26
f 29/71/27 30/72/27 33/73/27 34/74/27
f 28/52/28 26/51/28 32/75/28 31/76/28
f 32/77/29 34/78/29 33/79/29 31/80/29
f 22/45/30 7/26/30 30/58/30 40/81/30
f 10/19/31 16/18/31 36/65/31
f 37/82/32 35/64/32 36/65/32 38/83/32
f 39/84/33 37/85/33 38/86/33 40/87/33
f 16/18/34 19/38/34 38/83/34 36/65/34
f 29/88/35 39/89/35 40/81/35 30/58/35
f 19/41/36 22/40/36 40/87/36 38/86/36
f 41/90/37 42/91/37 44/92/37 43/93/37
f 43/94/38 44/95/38 26/51/38 25/50/38
f 26/96/39 44/97/39 46/98/39 29/88/39
f 46/99/40 44/30/40 47/100/40 49/101/40
f 25/66/41 11/16/41 43/102/41
f 51/103/42 10/19/42 52/104/42
f 43/102/43 11/16/43 41/105/43
f 42/106/44 45/107/44 50/108/44 48/109/44
f 45/110/45 46/98/45 49/111/45 50/112/45
f 44/113/46 42/114/46 48/32/46 47/31/46
f 48/115/47 50/112/47 49/111/47 47/116/47
f 39/89/48 29/88/48 46/98/48 56/117/48
f 10/19/49 35/64/49 52/104/49
f 53/118/50 51/103/50 52/104/50 54/119/50
f 55/120/51 53/121/51 54/122/51 56/123/51
f 35/64/52 37/82/52 54/119/52 52/104/52
f 45/110/53 55/124/53 56/117/53 46/98/53
f 37/85/54 39/84/54 56/123/54 54/122/54
f 57/125/55 58/126/55 60/127/55 59/128/55
f 59/128/56 60/127/56 42/91/56 41/90/56
f 42/129/57 60/130/57 62/131/57 45/110/57
f 62/70/58 60/132/58 63/133/58 65/134/58
f 41/105/59 11/16/59 59/135/59
f 67/136/60 10/19/60 68/137/60
f 59/135/5 11/16/5 57/138/5
f 58/139/61 61/140/61 66/141/61 64/142/61
f 61/143/62 62/131/62 65/144/62 66/145/62
f 60/127/63 58/126/63 64/146/63 63/147/63
f 64/148/64 66/145/64 65/144/64 63/149/64
f 55/124/65 45/110/65 62/131/65 72/150/65
f 10/19/66 51/103/66 68/137/66
f 69/151/67 67/136/67 68/137/67 70/152/67
f 71/153/68 69/154/68 70/155/68 72/156/68
f 51/103/69 53/118/69 70/152/69 68/137/69
f 61/143/70 71/157/70 72/150/70 62/131/70
f 53/158/71 55/159/71 72/156/71 70/155/71
f 73/160/72 74/161/72 76/162/72 75/163/72
f 75/164/73 76/165/73 58/126/73 57/125/73
f 58/166/74 76/167/74 78/168/74 61/143/74
f 78/169/75 76/170/75 79/171/75 81/172/75
f 57/138/76 11/16/76 75/173/76
f 83/174/77 10/19/77 84/175/77
f 75/173/23 11/16/23 73/176/23
f 74/177/78 77/178/78 82/179/78 80/180/78
f 77/181/79 78/168/79 81/182/79 82/183/79
f 76/184/80 74/185/80 80/186/80 79/187/80
f 80/188/81 82/183/81 81/182/81 79/189/81
f 71/157/82 61/143/82 78/168/82 88/190/82
f 10/19/83 67/136/83 84/175/83
f 85/191/84 83/174/84 84/175/84 86/192/84
f 87/193/85 85/194/85 86/195/85 88/196/85
f 67/136/86 69/151/86 86/192/86 84/175/86
f 77/181/87 87/197/87 88/190/87 78/168/87
f 69/154/88 71/153/88 88/196/88 86/195/88
f 89/198/89 90/199/89 92/200/89 91/201/89
f 91/201/90 92/200/90 74/161/90 73/160/90
f 74/202/91 92/203/91 94/204/91 77/181/91
f 94/205/92 92/206/92 95/207/92 97/208/92
f 73/176/7 11/16/7 91/209/7
f 99/210/93 10/19/93 100/211/93
f 91/209/41 11/16/41 89/212/41
f 90/213/94 93/214/94 98/215/94 96/216/94
f 93/217/95 94/204/95 97/218/95 98/219/95
f 92/200/96 90/199/96 96/220/96 95/221/96
f 96/222/97 98/219/97 97/218/97 95/223/97
f 87/197/98 77/181/98 94/204/98 104/224/98
f 10/19/99 83/174/99 100/211/99
f 101/225/100 99/210/100 100/211/100 102/226/100
f 103/227/101 101/228/101 102/229/101 104/230/101
f 83/174/102 85/191/102 102/226/102 100/211/102
f 93/217/103 103/231/103 104/224/103 94/204/103
f 85/232/104 87/233/104 104/230/104 102/229/104
f 105/234/105 106/235/105 108/236/105 107/237/105
f 107/237/106 108/236/106 90/199/106 89/198/106
f 90/238/107 108/239/107 110/240/107 93/217/107
f 110/241/108 108/242/108 111/243/108 113/244/108
f 89/212/25 11/16/25 107/245/25
f 115/246/109 10/19/109 116/247/109
f 107/245/59 11/16/59 105/248/59
f 106/249/110 109/250/110 114/251/110 112/252/110
f 109/253/111 110/240/111 113/254/111 114/255/111
f 108/256/112 106/257/112 112/258/112 111/259/112
f 112/260/113 114/255/113 113/254/113 111/261/113
f 103/231/114 93/217/114 110/240/114 120/262/114
f 10/19/115 99/210/115 116/247/115
f 117/263/116 115/246/116 116/247/116 118/264/116
f 119/265/117 117/266/117 118/267/117 120/268/117
f 99/210/118 101/225/118 118/264/118 116/247/118
f 109/253/119 119/269/119 120/262/119 110/240/119
f 101/228/120 103/227/120 120/270/120 118/271/120
f 121/272/121 122/273/121 124/274/121 123/275/121
f 123/275/122 124/274/122 106/250/122 105/276/122
f 106/277/123 124/278/123 126/279/123 109/253/123
f 126/142/124 124/280/124 127/281/124 129/282/124
f 105/248/43 11/16/43 123/283/43
f 131/37/125 10/19/125 132/284/125
f 123/283/76 11/16/76 121/15/76
f 122/285/126 125/133/126 130/286/126 128/207/126
f 125/10/127 126/279/127 129/287/127 130/288/127
f 124/289/128 122/290/128 128/187/128 127/186/128
f 128/291/129 130/288/129 129/287/129 127/292/129
f 119/269/130 109/253/130 126/279/130 136/293/130
f 10/19/131 115/246/131 132/284/131
f 133/44/132 131/37/132 132/284/132 134/294/132
f 135/295/133 133/296/133 134/297/133 136/298/133
f 115/246/134 117/263/134 134/294/134 132/284/134
f 125/10/135 135/35/135 136/293/135 126/279/135
f 117/266/136 119/265/136 136/298/136 134/297/136
